<svg xmlns="http://www.w3.org/2000/svg" width="1000" height="333" viewBox="0 0 1000 333" overflow="hidden"><defs><clipPath id="gum-clip-0" clipPathUnits="userSpaceOnUse"><rect x="0" y="0" width="1000" height="333"/></clipPath></defs><g clip-path="url(#gum-clip-0)"><g transform="translate(47 24)"><g role="img" aria-label="gum"><path d="M133.2 243.12Q133.2 256.32 126.84 265.68Q120.48 275.04 105.6 279.96Q90.72 284.88 65.04 284.88Q43.2 284.88 30.12 281.4Q17.04 277.92 11.16 271.32Q5.28 264.72 5.28 255.6Q5.28 245.04 11.52 239.04Q17.76 233.04 28.8 231.6L28.8 228.96Q19.92 227.28 15.24 221.16Q10.56 215.04 10.56 206.88Q10.56 197.04 17.88 191.64Q25.2 186.24 34.08 184.56L34.08 183.6Q22.8 178.32 17.16 169.08Q11.52 159.84 11.52 147.6Q11.52 134.88 17.52 125.28Q23.52 115.68 35.52 110.4Q47.52 105.12 65.52 105.12Q71.52 105.12 76.92 105.72Q82.32 106.32 86.88 107.52L86.88 102.72Q86.88 92.88 91.92 88.32Q96.96 83.76 105.84 83.76L125.76 83.76L125.76 110.16L97.92 110.16L97.92 111.6Q108.96 116.88 114.24 126.24Q119.52 135.6 119.52 147.6Q119.52 160.08 113.64 169.56Q107.76 179.04 95.76 184.2Q83.76 189.36 65.52 189.36Q59.28 189.36 53.64 188.64Q48 187.92 43.2 186.72Q40.8 188.4 39.24 190.92Q37.68 193.44 37.68 196.8Q37.68 201.36 41.16 203.88Q44.64 206.4 52.8 206.4L89.28 206.4Q112.32 206.4 122.76 216Q133.2 225.6 133.2 243.12ZM99.84 247.92Q99.84 242.4 95.4 239.52Q90.96 236.64 80.4 236.64L37.2 236.64Q34.8 239.04 33.72 242.04Q32.64 245.04 32.64 247.92Q32.64 254.64 38.64 258Q44.64 261.36 59.04 261.36L73.44 261.36Q87.84 261.36 93.84 258Q99.84 254.64 99.84 247.92ZM65.52 166.08Q76.08 166.08 81.24 161.52Q86.4 156.96 86.4 148.8L86.4 145.92Q86.4 137.52 81.24 133.08Q76.08 128.64 65.52 128.64Q55.2 128.64 49.92 133.08Q44.64 137.52 44.64 145.92L44.64 148.8Q44.64 156.96 49.92 161.52Q55.2 166.08 65.52 166.08ZM222.48 234L222.48 212.88L221.28 212.88Q218.16 222.48 209.88 229.68Q201.6 236.88 186 236.88Q166.8 236.88 156.72 223.92Q146.64 210.96 146.64 187.2L146.64 108L182.16 108L182.16 184.08Q182.16 195.6 186.36 201.84Q190.56 208.08 200.16 208.08Q205.68 208.08 210.84 206.04Q216 204 219.24 199.92Q222.48 195.84 222.48 189.84L222.48 108L258 108L258 234ZM326.64 234L291.12 234L291.12 108L326.64 108L326.64 129.36L328.08 129.36Q331.44 119.28 339.72 112.2Q348 105.12 361.92 105.12Q374.88 105.12 384 111.6Q393.12 118.08 397.2 130.56L397.92 130.56Q401.28 120 411.6 112.56Q421.92 105.12 436.32 105.12Q454.56 105.12 464.28 118.2Q474 131.28 474 155.04L474 234L438.48 234L438.48 157.92Q438.48 145.68 434.28 139.8Q430.08 133.92 421.2 133.92Q415.92 133.92 411.12 135.96Q406.32 138 403.32 142.08Q400.32 146.16 400.32 152.4L400.32 234L364.8 234L364.8 157.92Q364.8 145.68 360.48 139.8Q356.16 133.92 347.52 133.92Q342.48 133.92 337.68 135.96Q332.88 138 329.76 142.08Q326.64 146.16 326.64 152.4Z" fill="#000000" stroke="none" stroke-width="0" stroke-linecap="butt" stroke-linejoin="miter" stroke-miterlimit="4"/></g></g><g transform="translate(559 200)"><ellipse cx="24" cy="24" rx="24" ry="24" fill="#1e88e5" stroke="none" stroke-width="1" stroke-linecap="butt" stroke-linejoin="miter" stroke-miterlimit="4"/></g><g transform="translate(630 24)"><g role="img" aria-label="jsx"><path d="M16.56 254.4L16.56 108L52.08 108L52.08 247.44Q52.08 264.24 43.56 273.12Q35.04 282 16.56 282L-2.16 282L-2.16 254.4ZM34.32 94.56Q23.52 94.56 18.6 89.52Q13.68 84.48 13.68 77.04L13.68 71.76Q13.68 64.08 18.6 59.16Q23.52 54.24 34.32 54.24Q45.12 54.24 50.04 59.16Q54.96 64.08 54.96 71.76L54.96 77.04Q54.96 84.48 50.04 89.52Q45.12 94.56 34.32 94.56ZM127.92 236.88Q109.68 236.88 97.2 231Q84.72 225.12 74.88 214.32L95.76 193.2Q102.48 200.64 110.64 204.96Q118.8 209.28 129.12 209.28Q139.68 209.28 143.76 206.04Q147.84 202.8 147.84 197.28Q147.84 192.48 144.84 190.08Q141.84 187.68 135.12 186.72L121.44 185.04Q107.28 183.12 97.8 178.32Q88.32 173.52 83.64 165.48Q78.96 157.44 78.96 146.16Q78.96 127.92 92.16 116.52Q105.36 105.12 127.92 105.12Q141.12 105.12 150.24 107.4Q159.36 109.68 166.2 114.12Q173.04 118.56 179.28 124.8L158.88 145.68Q152.88 139.68 145.32 136.2Q137.76 132.72 129.84 132.72Q120.96 132.72 117 135.6Q113.04 138.48 113.04 143.28Q113.04 148.32 115.8 151.08Q118.56 153.84 126.24 155.04L140.4 156.96Q161.04 159.6 171.48 169.08Q181.92 178.56 181.92 194.88Q181.92 206.88 175.2 216.48Q168.48 226.08 156.36 231.48Q144.24 236.88 127.92 236.88ZM189.84 234L231.36 169.92L190.32 108L230.64 108L254.16 147.6L255.12 147.6L277.92 108L315.36 108L273.6 171.12L315.6 234L275.28 234L251.04 192.96L250.08 192.96L226.8 234Z" fill="#000000" stroke="none" stroke-width="0" stroke-linecap="butt" stroke-linejoin="miter" stroke-miterlimit="4"/></g></g></g></svg>
